Coordinates
version=1
nRows=22
nColumns=33
inDegrees=yes

Units are S.I. units (second, meters, Newtons, ...)
Angles are in degrees.

endheader
time	ground_thorax_rot_x	ground_thorax_rot_y	ground_thorax_rot_z	ground_thorax_tx	ground_thorax_ty	ground_thorax_tz	clav_prot_r	clav_elev_r	scapula_abduction_r	scapula_elevation_r	scapula_upward_rot_r	scapula_winging_r	shoulder_elv_r	plane_of_elev_r	axial_rot_r	elbow_flexion_r	pro_sup_r	wrist_flex_r	wrist_dev_r	clav_prot_l	clav_elev_l	scapula_abduction_l	scapula_elevation_l	scapula_upward_rot_l	scapula_winging_l	shoulder_elv_l	plane_of_elev_l	axial_rot_l	elbow_flexion_l	pro_sup_l	wrist_flex_l	wrist_dev_l	
4.5200	-41.712395	-7.660556	11.436774	-44.710009	812.483564	-52.147808	23.384803	-45.000000	33.879072	-45.000000	-44.999999	-2250.825139	-2445.716516	22.522532	180.000000	1445.305003	203.109788	25.278105	15.445999	5.564647	28.156078	-30.096816	-45.000000	-45.000000	-2085.215608	-1344.061472	18.414908	-180.000000	3239.952051	178.756385	9.830870	-14.755524	
4.5300	-41.763262	-7.483194	11.205864	-47.333711	814.171736	-52.168104	23.354848	-45.000000	33.816629	-45.000000	-44.999997	-2251.015798	-2445.675528	22.569067	180.000000	1445.228358	203.246655	25.339302	15.515375	5.482263	28.198004	-30.045135	-45.000000	-45.000000	-2085.099971	-1344.028759	18.428462	-180.000000	3239.934727	178.817274	9.855340	-14.823661	
4.5400	-41.801733	-7.313555	10.992201	-49.874639	815.908277	-52.181238	23.324911	-45.000000	33.757407	-45.000000	-44.999995	-2251.211168	-2445.630475	22.617727	180.000000	1445.145607	203.379654	25.394769	15.580776	5.401474	28.240751	-29.997868	-45.000000	-45.000000	-2084.982020	-1343.998274	18.442674	-180.000000	3239.905734	178.859272	9.881058	-14.894510	
4.5500	-41.828259	-7.154178	10.790304	-52.323790	817.673785	-52.170602	23.294796	-45.000000	33.705331	-45.000000	-44.999992	-2251.408190	-2445.582380	22.669512	180.000000	1445.059066	203.498703	25.432196	15.640650	5.320849	28.283809	-29.953725	-45.000000	-45.000000	-2084.863054	-1343.967219	18.457169	-180.000000	3239.868053	178.886956	9.908382	-14.968855	
4.5600	-41.837987	-7.007744	10.598842	-54.672484	819.433505	-52.103695	23.265506	-45.000000	33.663803	-45.000000	-44.999985	-2251.605310	-2445.531489	22.724449	180.000000	1444.971207	203.594272	25.426122	15.688669	5.240615	28.325147	-29.911277	-45.000000	-45.000000	-2084.745206	-1343.934550	18.471493	-180.000000	3239.824207	178.904307	9.938399	-15.047367	
4.5700	-41.826764	-6.875272	10.413511	-56.915440	821.148219	-51.943147	23.235179	-45.000000	33.634472	-45.000000	-44.999974	-2251.802772	-2445.478499	22.785953	180.000000	1444.879839	203.655206	25.348009	15.717433	5.155255	28.364833	-29.868489	-45.000000	-45.000000	-2084.630743	-1343.896867	18.486740	-180.000000	3239.779590	178.915030	9.972186	-15.130161	
4.5800	-41.770999	-6.762511	10.242923	-59.053670	822.712437	-51.580915	23.206748	-45.000000	33.623709	-45.000000	-44.999953	-2252.011373	-2445.422451	22.857796	180.000000	1444.781577	203.676513	25.111311	15.699928	5.055793	28.401599	-29.820359	-45.000000	-45.000000	-2084.523051	-1343.853858	18.505407	-180.000000	3239.737533	178.922341	10.014791	-15.217151	
4.5900	-41.658560	-6.673365	10.091384	-61.090250	824.064071	-50.953332	23.181171	-45.000000	33.634562	-45.000000	-44.999916	-2252.237879	-2445.362744	22.944828	180.000000	1444.673887	203.638264	24.665257	15.618096	4.932527	28.436144	-29.762933	-45.000000	-45.000000	-2084.423477	-1343.802914	18.529364	-180.000000	3239.701778	178.933000	10.068386	-15.308368	
4.6000	-41.387203	-6.647984	10.004222	-63.042697	824.762551	-49.594580	23.173700	-45.000000	33.708536	-45.000000	-44.999850	-2252.530321	-2445.293893	23.066314	180.000000	1444.541940	203.562513	23.635799	15.352136	4.740791	28.465574	-29.671963	-45.000000	-45.000000	-2084.336985	-1343.747927	18.561400	-180.000000	3239.683421	178.955731	10.159438	-15.402160	
4.6100	-40.992504	-6.666265	9.968895	-64.904756	824.956914	-47.656278	23.178059	-45.000000	33.825435	-45.000000	-44.999732	-2252.871087	-2445.218284	23.216857	180.000000	1444.394184	203.349796	22.147529	14.926107	4.490616	28.489099	-29.559188	-45.000000	-45.000000	-2084.264824	-1343.683336	18.598164	-180.000000	3239.677033	179.016755	10.268848	-15.504883	
4.6200	-40.503660	-6.726976	9.984814	-66.673708	824.781154	-45.277878	23.192765	-45.000000	33.981306	-45.000000	-44.999520	-2253.253716	-2445.143235	23.390631	180.000000	1444.239136	202.921393	20.306758	14.378488	4.197304	28.512913	-29.430064	-45.000000	-45.000000	-2084.199566	-1343.613988	18.634918	-180.000000	3239.674841	179.129748	10.390973	-15.617755	
4.6300	-40.060135	-6.772936	9.993772	-68.333670	824.832829	-43.092877	23.197114	-45.000000	34.120485	-45.000000	-44.999138	-2253.613776	-2445.079373	23.560322	180.000000	1444.098210	202.165631	18.617963	13.869984	3.922319	28.537927	-29.320781	-45.000000	-45.000000	-2084.131187	-1343.536973	18.667273	-180.000000	3239.658336	179.295731	10.485782	-15.744339	
4.6400	-39.673433	-6.814651	10.000174	-69.893395	825.172211	-41.175321	23.193032	-45.000000	34.250878	-45.000000	-44.998461	-2253.951659	-2445.029502	23.719639	180.000000	1443.975788	201.113304	17.129687	13.436729	3.676964	28.570351	-29.229545	-45.000000	-45.000000	-2084.051536	-1343.461343	18.693703	-180.000000	3239.625556	179.488033	10.560610	-15.877063	
4.6500	-39.448114	-6.801202	9.952632	-71.347314	826.243906	-40.005912	23.163499	-45.000000	34.323971	-45.000000	-44.997230	-2254.213711	-2444.995764	23.845535	180.000000	1443.884835	199.763314	16.226410	13.201621	3.506209	28.607794	-29.184432	-45.000000	-45.000000	-2083.957843	-1343.382663	18.713664	-180.000000	3239.565529	179.680309	10.584385	-16.015393	
4.6600	-39.354111	-6.757327	9.867695	-72.711518	827.918496	-39.463750	23.117164	-45.000000	34.359890	-45.000000	-44.995076	-2254.419877	-2444.975858	23.943135	180.000000	1443.819784	198.236963	15.804913	13.150187	3.400353	28.656705	-29.170812	-45.000000	-45.000000	-2083.846360	-1343.307384	18.729803	-180.000000	3239.483820	179.833771	10.577765	-16.149133	
4.6700	-39.370227	-6.675377	9.738761	-73.996410	830.087754	-39.446992	23.055106	-45.000000	34.359501	-45.000000	-44.991075	-2254.571771	-2444.961771	24.014543	180.000000	1443.771703	196.639825	15.788672	13.251849	3.348993	28.707501	-29.187366	-45.000000	-45.000000	-2083.724688	-1343.231266	18.747222	-180.000000	3239.384585	179.923546	10.542157	-16.275988	
4.6800	-39.380472	-6.606987	9.617253	-75.221526	832.248740	-39.433526	22.995978	-45.000000	34.370900	-45.000000	-44.984302	-2254.724285	-2444.943609	24.081838	180.000000	1443.724745	195.106026	15.761429	13.373066	3.299625	28.761631	-29.202318	-45.000000	-45.000000	-2083.600049	-1343.157746	18.769594	-180.000000	3239.287262	179.940448	10.512890	-16.389592	
4.6900	-39.388307	-6.535149	9.491483	-76.383229	834.397923	-39.422270	22.936368	-45.000000	34.383229	-45.000000	-44.971073	-2254.868820	-2444.918689	24.144565	180.000000	1443.678222	193.642978	15.730691	13.497294	3.250602	28.811868	-29.221718	-45.000000	-45.000000	-2083.480234	-1343.079971	18.796233	-180.000000	3239.190113	179.900414	10.478233	-16.495969	
4.7000	-39.395323	-6.468296	9.364523	-77.479735	836.531706	-39.413227	22.879181	-45.000000	34.398821	-45.000000	-44.950439	-2255.012066	-2444.894442	24.210809	180.000000	1443.631618	192.247204	15.696921	13.627639	3.201674	28.864228	-29.238176	-45.000000	-45.000000	-2083.358497	-1342.996248	18.829602	-180.000000	3239.094345	179.818461	10.444553	-16.595082	
4.7100	-39.402054	-6.392706	9.225422	-78.511420	838.646978	-39.407042	22.819174	-45.000000	34.416410	-45.000000	-44.904927	-2255.149209	-2444.869672	24.273553	180.000000	1443.582868	190.916481	15.662057	13.757030	3.158363	28.912268	-29.260473	-45.000000	-45.000000	-2083.242148	-1342.908534	18.866829	-180.000000	3238.998176	179.703619	10.402679	-16.690479	
4.7200	-39.409434	-6.315397	9.078868	-79.479991	840.741264	-39.404110	22.757956	-45.000000	34.435983	-45.000000	-44.847268	-2255.283582	-2444.848536	24.338536	180.000000	1443.529997	189.643329	15.626818	13.888585	3.119449	28.959566	-29.283160	-45.000000	-45.000000	-2083.125741	-1342.814542	18.909749	-180.000000	3238.902007	179.562644	10.357290	-16.782410	
4.7300	-39.416455	-6.222962	8.916673	-80.388044	842.812494	-39.404368	22.691161	-45.000000	34.458784	-45.000000	-44.748091	-2255.412629	-2444.828405	24.397432	180.000000	1443.479091	188.427044	15.593288	14.016425	3.084199	29.006361	-29.313436	-45.000000	-45.000000	-2083.013582	-1342.718073	18.960678	-180.000000	3238.804761	179.402023	10.300971	-16.875133	
